<?xml version="1.0" encoding="utf-8"?>
<!-- Svg Vector Icons : http://www.onlinewebfonts.com/icon -->
<!DOCTYPE svg PUBLIC "-//W3C//DTD SVG 1.1//EN" "http://www.w3.org/Graphics/SVG/1.1/DTD/svg11.dtd">
<svg version="1.1" xmlns="http://www.w3.org/2000/svg" xmlns:xlink="http://www.w3.org/1999/xlink" x="0px" y="0px" viewBox="0 0 1000 1000" enable-background="new 0 0 1000 1000" xml:space="preserve">
<metadata> Svg Vector Icons : http://www.onlinewebfonts.com/icon </metadata>
<g><path d="M167.2,316v607.6c0,36.7,29.7,66.4,66.4,66.4h534.8c36.7,0,66.4-29.7,66.4-66.4V316H167.2L167.2,316z M348.5,866.3h-59.8V434.7h59.8V866.3L348.5,866.3z M469.2,866.3h-59.8V434.7h59.8V866.3L469.2,866.3z M590.4,866.3h-59.8V434.7h59.8V866.3L590.4,866.3z M711.1,866.3h-59.8V434.7h59.8V866.3L711.1,866.3z M827.4,132.2H720.6V76.4c0-36.7-29.7-66.4-66.4-66.4H364.1c-36.7,0-66.4,29.7-66.4,66.4v55.8H172.5c-36.7,0-66.5,29.7-66.5,66.4v54.3h787.9v-54.3C893.9,162,864.2,132.2,827.4,132.2L827.4,132.2z M660.2,132.6H357.4V71.7h302.8V132.6L660.2,132.6z"/></g>
</svg>